<svg width="409" height="400" viewBox="0 0 409 400" fill="none" xmlns="http://www.w3.org/2000/svg">
<rect width="409" height="220" fill="#143472"/>
<path d="M23.9254 43V25.5455H34.7493V27.8125H26.5589V33.1307H33.9737V35.3892H26.5589V43H23.9254ZM37.9879 43V25.5455H40.6214V40.733H48.5305V43H37.9879ZM51.5348 43V25.5455H62.478V27.8125H54.1683V33.1307H61.907V35.3892H54.1683V40.733H62.5803V43H51.5348ZM67.8281 25.5455L72.0043 32.3722H72.1406L76.3168 25.5455H79.3679L73.9304 34.2727L79.402 43H76.3338L72.1406 36.267H72.0043L67.8111 43H64.7429L70.3082 34.2727L64.777 25.5455H67.8281ZM84.6136 25.5455V43H81.9801V25.5455H84.6136ZM88.4489 43V25.5455H94.8409C96.0795 25.5455 97.1051 25.75 97.9176 26.1591C98.7301 26.5625 99.3381 27.1108 99.7415 27.804C100.145 28.4915 100.347 29.267 100.347 30.1307C100.347 30.858 100.213 31.4716 99.946 31.9716C99.679 32.4659 99.321 32.8636 98.8722 33.1648C98.429 33.4602 97.9403 33.6761 97.4062 33.8125V33.983C97.9858 34.0114 98.5511 34.1989 99.1023 34.5455C99.6591 34.8864 100.119 35.3722 100.483 36.0028C100.847 36.6335 101.028 37.4006 101.028 38.304C101.028 39.196 100.818 39.9972 100.398 40.7074C99.983 41.4119 99.3409 41.9716 98.4716 42.3864C97.6023 42.7955 96.4915 43 95.1392 43H88.4489ZM91.0824 40.7415H94.8835C96.1449 40.7415 97.0483 40.4972 97.5938 40.0085C98.1392 39.5199 98.4119 38.9091 98.4119 38.1761C98.4119 37.625 98.2727 37.1193 97.9943 36.6591C97.7159 36.1989 97.3182 35.8324 96.8011 35.5597C96.2898 35.2869 95.6818 35.1506 94.9773 35.1506H91.0824V40.7415ZM91.0824 33.0966H94.6108C95.2017 33.0966 95.733 32.983 96.2045 32.7557C96.6818 32.5284 97.0597 32.2102 97.3381 31.8011C97.6222 31.3864 97.7642 30.8977 97.7642 30.3352C97.7642 29.6136 97.5114 29.0085 97.0057 28.5199C96.5 28.0312 95.7244 27.7869 94.679 27.7869H91.0824V33.0966ZM104.152 43V25.5455H106.786V40.733H114.695V43H104.152ZM117.699 43V25.5455H128.642V27.8125H120.332V33.1307H128.071V35.3892H120.332V40.733H128.744V43H117.699ZM148.031 30.1307C147.94 29.3239 147.565 28.6989 146.906 28.2557C146.247 27.8068 145.418 27.5824 144.418 27.5824C143.702 27.5824 143.082 27.696 142.56 27.9233C142.037 28.1449 141.631 28.4517 141.341 28.8438C141.057 29.2301 140.915 29.6705 140.915 30.1648C140.915 30.5795 141.011 30.9375 141.205 31.2386C141.403 31.5398 141.662 31.7926 141.98 31.9972C142.304 32.196 142.651 32.3636 143.02 32.5C143.389 32.6307 143.744 32.7386 144.085 32.8239L145.79 33.267C146.347 33.4034 146.918 33.5881 147.503 33.821C148.088 34.054 148.631 34.3608 149.131 34.7415C149.631 35.1222 150.034 35.5938 150.341 36.1562C150.653 36.7188 150.81 37.392 150.81 38.1761C150.81 39.1648 150.554 40.0426 150.043 40.8097C149.537 41.5767 148.801 42.1818 147.835 42.625C146.875 43.0682 145.713 43.2898 144.349 43.2898C143.043 43.2898 141.912 43.0824 140.957 42.6676C140.003 42.2528 139.256 41.6648 138.716 40.9034C138.176 40.1364 137.878 39.2273 137.821 38.1761H140.463C140.514 38.8068 140.719 39.3324 141.077 39.7528C141.44 40.1676 141.903 40.4773 142.466 40.6818C143.034 40.8807 143.656 40.9801 144.332 40.9801C145.077 40.9801 145.739 40.8636 146.318 40.6307C146.903 40.392 147.364 40.0625 147.699 39.642C148.034 39.2159 148.202 38.7187 148.202 38.1506C148.202 37.6335 148.054 37.2102 147.759 36.8807C147.469 36.5511 147.074 36.2784 146.574 36.0625C146.08 35.8466 145.52 35.6562 144.895 35.4915L142.832 34.929C141.435 34.5483 140.327 33.9886 139.509 33.25C138.696 32.5114 138.29 31.5341 138.29 30.3182C138.29 29.3125 138.563 28.4347 139.108 27.6847C139.653 26.9347 140.392 26.3523 141.324 25.9375C142.256 25.517 143.307 25.3068 144.477 25.3068C145.659 25.3068 146.702 25.5142 147.605 25.929C148.514 26.3438 149.23 26.9148 149.753 27.642C150.276 28.3636 150.548 29.1932 150.571 30.1307H148.031ZM152.61 25.5455H155.602L160.161 33.4801H160.349L164.908 25.5455H167.9L161.567 36.1477V43H158.942V36.1477L152.61 25.5455ZM179.906 30.1307C179.815 29.3239 179.44 28.6989 178.781 28.2557C178.122 27.8068 177.293 27.5824 176.293 27.5824C175.577 27.5824 174.957 27.696 174.435 27.9233C173.912 28.1449 173.506 28.4517 173.216 28.8438C172.932 29.2301 172.79 29.6705 172.79 30.1648C172.79 30.5795 172.886 30.9375 173.08 31.2386C173.278 31.5398 173.537 31.7926 173.855 31.9972C174.179 32.196 174.526 32.3636 174.895 32.5C175.264 32.6307 175.619 32.7386 175.96 32.8239L177.665 33.267C178.222 33.4034 178.793 33.5881 179.378 33.821C179.963 34.054 180.506 34.3608 181.006 34.7415C181.506 35.1222 181.909 35.5938 182.216 36.1562C182.528 36.7188 182.685 37.392 182.685 38.1761C182.685 39.1648 182.429 40.0426 181.918 40.8097C181.412 41.5767 180.676 42.1818 179.71 42.625C178.75 43.0682 177.588 43.2898 176.224 43.2898C174.918 43.2898 173.787 43.0824 172.832 42.6676C171.878 42.2528 171.131 41.6648 170.591 40.9034C170.051 40.1364 169.753 39.2273 169.696 38.1761H172.338C172.389 38.8068 172.594 39.3324 172.952 39.7528C173.315 40.1676 173.778 40.4773 174.341 40.6818C174.909 40.8807 175.531 40.9801 176.207 40.9801C176.952 40.9801 177.614 40.8636 178.193 40.6307C178.778 40.392 179.239 40.0625 179.574 39.642C179.909 39.2159 180.077 38.7187 180.077 38.1506C180.077 37.6335 179.929 37.2102 179.634 36.8807C179.344 36.5511 178.949 36.2784 178.449 36.0625C177.955 35.8466 177.395 35.6562 176.77 35.4915L174.707 34.929C173.31 34.5483 172.202 33.9886 171.384 33.25C170.571 32.5114 170.165 31.5341 170.165 30.3182C170.165 29.3125 170.438 28.4347 170.983 27.6847C171.528 26.9347 172.267 26.3523 173.199 25.9375C174.131 25.517 175.182 25.3068 176.352 25.3068C177.534 25.3068 178.577 25.5142 179.48 25.929C180.389 26.3438 181.105 26.9148 181.628 27.642C182.151 28.3636 182.423 29.1932 182.446 30.1307H179.906ZM184.971 27.8125V25.5455H198.479V27.8125H193.033V43H190.408V27.8125H184.971ZM201.464 43V25.5455H212.408V27.8125H204.098V33.1307H211.837V35.3892H204.098V40.733H212.51V43H201.464ZM215.925 25.5455H219.121L224.678 39.1136H224.883L230.44 25.5455H233.636V43H231.13V30.3693H230.968L225.82 42.9744H223.741L218.593 30.3608H218.431V43H215.925V25.5455ZM246.984 30.1307C246.893 29.3239 246.518 28.6989 245.859 28.2557C245.2 27.8068 244.371 27.5824 243.371 27.5824C242.655 27.5824 242.036 27.696 241.513 27.9233C240.99 28.1449 240.584 28.4517 240.294 28.8438C240.01 29.2301 239.868 29.6705 239.868 30.1648C239.868 30.5795 239.964 30.9375 240.158 31.2386C240.357 31.5398 240.615 31.7926 240.933 31.9972C241.257 32.196 241.604 32.3636 241.973 32.5C242.342 32.6307 242.697 32.7386 243.038 32.8239L244.743 33.267C245.3 33.4034 245.871 33.5881 246.456 33.821C247.041 34.054 247.584 34.3608 248.084 34.7415C248.584 35.1222 248.987 35.5938 249.294 36.1562C249.607 36.7188 249.763 37.392 249.763 38.1761C249.763 39.1648 249.507 40.0426 248.996 40.8097C248.49 41.5767 247.754 42.1818 246.788 42.625C245.828 43.0682 244.666 43.2898 243.303 43.2898C241.996 43.2898 240.865 43.0824 239.911 42.6676C238.956 42.2528 238.209 41.6648 237.669 40.9034C237.129 40.1364 236.831 39.2273 236.774 38.1761H239.416C239.467 38.8068 239.672 39.3324 240.03 39.7528C240.393 40.1676 240.857 40.4773 241.419 40.6818C241.987 40.8807 242.609 40.9801 243.286 40.9801C244.03 40.9801 244.692 40.8636 245.271 40.6307C245.857 40.392 246.317 40.0625 246.652 39.642C246.987 39.2159 247.155 38.7187 247.155 38.1506C247.155 37.6335 247.007 37.2102 246.712 36.8807C246.422 36.5511 246.027 36.2784 245.527 36.0625C245.033 35.8466 244.473 35.6562 243.848 35.4915L241.786 34.929C240.388 34.5483 239.28 33.9886 238.462 33.25C237.649 32.5114 237.243 31.5341 237.243 30.3182C237.243 29.3125 237.516 28.4347 238.061 27.6847C238.607 26.9347 239.345 26.3523 240.277 25.9375C241.209 25.517 242.26 25.3068 243.43 25.3068C244.612 25.3068 245.655 25.5142 246.558 25.929C247.467 26.3438 248.183 26.9148 248.706 27.642C249.229 28.3636 249.501 29.1932 249.524 30.1307H246.984Z" fill="white"/>
<rect width="400" height="70" transform="translate(0 71)" fill="#143472"/>
<path d="M232.277 106V88.5455H238.669C239.908 88.5455 240.933 88.75 241.746 89.1591C242.558 89.5625 243.166 90.1108 243.57 90.804C243.973 91.4915 244.175 92.267 244.175 93.1307C244.175 93.858 244.041 94.4716 243.774 94.9716C243.507 95.4659 243.149 95.8636 242.7 96.1648C242.257 96.4602 241.768 96.6761 241.234 96.8125V96.983C241.814 97.0114 242.379 97.1989 242.93 97.5455C243.487 97.8864 243.947 98.3722 244.311 99.0028C244.675 99.6335 244.857 100.401 244.857 101.304C244.857 102.196 244.646 102.997 244.226 103.707C243.811 104.412 243.169 104.972 242.3 105.386C241.43 105.795 240.32 106 238.967 106H232.277ZM234.911 103.741H238.712C239.973 103.741 240.876 103.497 241.422 103.009C241.967 102.52 242.24 101.909 242.24 101.176C242.24 100.625 242.101 100.119 241.822 99.6591C241.544 99.1989 241.146 98.8324 240.629 98.5597C240.118 98.2869 239.51 98.1506 238.805 98.1506H234.911V103.741ZM234.911 96.0966H238.439C239.03 96.0966 239.561 95.983 240.033 95.7557C240.51 95.5284 240.888 95.2102 241.166 94.8011C241.45 94.3864 241.592 93.8977 241.592 93.3352C241.592 92.6136 241.339 92.0085 240.834 91.5199C240.328 91.0312 239.553 90.7869 238.507 90.7869H234.911V96.0966ZM262.477 94.2216H259.818C259.716 93.6534 259.526 93.1534 259.247 92.7216C258.969 92.2898 258.628 91.9233 258.224 91.6222C257.821 91.321 257.369 91.0937 256.869 90.9403C256.375 90.7869 255.849 90.7102 255.293 90.7102C254.287 90.7102 253.386 90.9631 252.591 91.4688C251.801 91.9744 251.176 92.7159 250.716 93.6932C250.261 94.6705 250.034 95.8636 250.034 97.2727C250.034 98.6932 250.261 99.892 250.716 100.869C251.176 101.847 251.804 102.585 252.599 103.085C253.395 103.585 254.29 103.835 255.284 103.835C255.835 103.835 256.358 103.761 256.852 103.614C257.352 103.46 257.804 103.236 258.207 102.94C258.611 102.645 258.952 102.284 259.23 101.858C259.514 101.426 259.71 100.932 259.818 100.375L262.477 100.384C262.335 101.241 262.06 102.031 261.651 102.753C261.247 103.469 260.727 104.088 260.091 104.611C259.46 105.128 258.739 105.528 257.926 105.812C257.114 106.097 256.227 106.239 255.267 106.239C253.756 106.239 252.409 105.881 251.227 105.165C250.045 104.443 249.114 103.412 248.432 102.071C247.756 100.73 247.418 99.1307 247.418 97.2727C247.418 95.4091 247.759 93.8097 248.44 92.4744C249.122 91.1335 250.054 90.1051 251.236 89.3892C252.418 88.6676 253.761 88.3068 255.267 88.3068C256.193 88.3068 257.057 88.4403 257.858 88.7074C258.665 88.9687 259.389 89.3551 260.031 89.8665C260.673 90.3722 261.205 90.9915 261.625 91.7244C262.045 92.4517 262.33 93.2841 262.477 94.2216ZM279.717 88.5455V106H277.296L268.424 93.1989H268.262V106H265.629V88.5455H268.066L276.947 101.364H277.109V88.5455H279.717Z" fill="white"/>
<path d="M24.1051 114V96.5455H26.7386V104.131H35.4403V96.5455H38.0824V114H35.4403V106.389H26.7386V114H24.1051ZM41.9176 114V96.5455H44.5511V104.131H53.2528V96.5455H55.8949V114H53.2528V106.389H44.5511V114H41.9176Z" fill="white"/>
<rect width="409" height="180" transform="translate(0 220)" fill="#143472"/>
<path d="M264.624 263L259.783 245.545H262.553L265.953 259.062H266.115L269.652 245.545H272.397L275.934 259.071H276.095L279.488 245.545H282.266L277.416 263H274.766L271.093 249.926H270.956L267.283 263H264.624ZM288.085 263L283.244 245.545H286.014L289.414 259.062H289.576L293.113 245.545H295.858L299.394 259.071H299.556L302.948 245.545H305.727L300.877 263H298.227L294.554 249.926H294.417L290.744 263H288.085ZM311.546 263L306.705 245.545H309.475L312.875 259.062H313.037L316.574 245.545H319.318L322.855 259.071H323.017L326.409 245.545H329.188L324.338 263H321.688L318.014 249.926H317.878L314.205 263H311.546ZM240.356 292.162C239.891 292.162 239.49 291.997 239.155 291.668C238.82 291.332 238.652 290.929 238.652 290.457C238.652 289.991 238.82 289.594 239.155 289.264C239.49 288.929 239.891 288.761 240.356 288.761C240.822 288.761 241.223 288.929 241.558 289.264C241.893 289.594 242.061 289.991 242.061 290.457C242.061 290.77 241.981 291.057 241.822 291.318C241.669 291.574 241.464 291.778 241.209 291.932C240.953 292.085 240.669 292.162 240.356 292.162ZM245.679 292V274.545H256.503V276.812H248.312V282.131H255.727V284.389H248.312V292H245.679ZM259.741 292V274.545H262.375V289.733H270.284V292H259.741ZM273.288 292V274.545H284.231V276.812H275.922V282.131H283.66V284.389H275.922V289.733H284.334V292H273.288ZM289.582 274.545L293.758 281.372H293.894L298.07 274.545H301.121L295.684 283.273L301.155 292H298.087L293.894 285.267H293.758L289.565 292H286.496L292.062 283.273L286.53 274.545H289.582ZM306.367 274.545V292H303.734V274.545H306.367ZM310.202 292V274.545H316.594C317.833 274.545 318.859 274.75 319.671 275.159C320.484 275.562 321.092 276.111 321.495 276.804C321.898 277.491 322.1 278.267 322.1 279.131C322.1 279.858 321.967 280.472 321.7 280.972C321.432 281.466 321.075 281.864 320.626 282.165C320.182 282.46 319.694 282.676 319.16 282.812V282.983C319.739 283.011 320.305 283.199 320.856 283.545C321.413 283.886 321.873 284.372 322.236 285.003C322.6 285.634 322.782 286.401 322.782 287.304C322.782 288.196 322.572 288.997 322.151 289.707C321.736 290.412 321.094 290.972 320.225 291.386C319.356 291.795 318.245 292 316.893 292H310.202ZM312.836 289.741H316.637C317.898 289.741 318.802 289.497 319.347 289.009C319.893 288.52 320.165 287.909 320.165 287.176C320.165 286.625 320.026 286.119 319.748 285.659C319.469 285.199 319.072 284.832 318.555 284.56C318.043 284.287 317.435 284.151 316.731 284.151H312.836V289.741ZM312.836 282.097H316.364C316.955 282.097 317.486 281.983 317.958 281.756C318.435 281.528 318.813 281.21 319.092 280.801C319.376 280.386 319.518 279.898 319.518 279.335C319.518 278.614 319.265 278.009 318.759 277.52C318.253 277.031 317.478 276.787 316.432 276.787H312.836V282.097ZM325.905 292V274.545H328.539V289.733H336.448V292H325.905ZM339.452 292V274.545H350.396V276.812H342.086V282.131H349.825V284.389H342.086V289.733H350.498V292H339.452ZM254.54 303.545L259.398 317.761H259.594L264.452 303.545H267.299L261.018 321H257.975L251.694 303.545H254.54ZM272.453 303.545V321H269.82V303.545H272.453ZM285.808 308.131C285.717 307.324 285.342 306.699 284.683 306.256C284.024 305.807 283.195 305.582 282.195 305.582C281.479 305.582 280.859 305.696 280.337 305.923C279.814 306.145 279.408 306.452 279.118 306.844C278.834 307.23 278.692 307.67 278.692 308.165C278.692 308.58 278.788 308.937 278.981 309.239C279.18 309.54 279.439 309.793 279.757 309.997C280.081 310.196 280.427 310.364 280.797 310.5C281.166 310.631 281.521 310.739 281.862 310.824L283.567 311.267C284.124 311.403 284.695 311.588 285.28 311.821C285.865 312.054 286.408 312.361 286.908 312.741C287.408 313.122 287.811 313.594 288.118 314.156C288.43 314.719 288.587 315.392 288.587 316.176C288.587 317.165 288.331 318.043 287.82 318.81C287.314 319.577 286.578 320.182 285.612 320.625C284.652 321.068 283.49 321.29 282.126 321.29C280.82 321.29 279.689 321.082 278.734 320.668C277.78 320.253 277.033 319.665 276.493 318.903C275.953 318.136 275.655 317.227 275.598 316.176H278.24C278.291 316.807 278.496 317.332 278.854 317.753C279.217 318.168 279.68 318.477 280.243 318.682C280.811 318.881 281.433 318.98 282.109 318.98C282.854 318.98 283.516 318.864 284.095 318.631C284.68 318.392 285.141 318.062 285.476 317.642C285.811 317.216 285.979 316.719 285.979 316.151C285.979 315.634 285.831 315.21 285.535 314.881C285.246 314.551 284.851 314.278 284.351 314.062C283.856 313.847 283.297 313.656 282.672 313.491L280.609 312.929C279.212 312.548 278.104 311.989 277.285 311.25C276.473 310.511 276.067 309.534 276.067 308.318C276.067 307.312 276.339 306.435 276.885 305.685C277.43 304.935 278.169 304.352 279.101 303.938C280.033 303.517 281.084 303.307 282.254 303.307C283.436 303.307 284.479 303.514 285.382 303.929C286.291 304.344 287.007 304.915 287.53 305.642C288.052 306.364 288.325 307.193 288.348 308.131H285.808ZM302.958 303.545H305.6V315.026C305.6 316.247 305.313 317.33 304.739 318.273C304.165 319.21 303.359 319.949 302.319 320.489C301.279 321.023 300.06 321.29 298.663 321.29C297.271 321.29 296.055 321.023 295.015 320.489C293.975 319.949 293.168 319.21 292.594 318.273C292.021 317.33 291.734 316.247 291.734 315.026V303.545H294.367V314.812C294.367 315.602 294.54 316.304 294.887 316.918C295.239 317.531 295.736 318.014 296.378 318.366C297.021 318.713 297.782 318.886 298.663 318.886C299.549 318.886 300.313 318.713 300.955 318.366C301.603 318.014 302.097 317.531 302.438 316.918C302.785 316.304 302.958 315.602 302.958 314.812V303.545ZM310.903 321H308.108L314.389 303.545H317.432L323.713 321H320.918L315.983 306.716H315.847L310.903 321ZM311.372 314.165H320.44V316.381H311.372V314.165ZM326.234 321V303.545H328.867V318.733H336.776V321H326.234ZM248.718 337.131C248.627 336.324 248.252 335.699 247.593 335.256C246.934 334.807 246.105 334.582 245.105 334.582C244.389 334.582 243.769 334.696 243.247 334.923C242.724 335.145 242.318 335.452 242.028 335.844C241.744 336.23 241.602 336.67 241.602 337.165C241.602 337.58 241.698 337.937 241.892 338.239C242.09 338.54 242.349 338.793 242.667 338.997C242.991 339.196 243.338 339.364 243.707 339.5C244.076 339.631 244.431 339.739 244.772 339.824L246.477 340.267C247.034 340.403 247.605 340.588 248.19 340.821C248.775 341.054 249.318 341.361 249.818 341.741C250.318 342.122 250.721 342.594 251.028 343.156C251.34 343.719 251.497 344.392 251.497 345.176C251.497 346.165 251.241 347.043 250.73 347.81C250.224 348.577 249.488 349.182 248.522 349.625C247.562 350.068 246.4 350.29 245.037 350.29C243.73 350.29 242.599 350.082 241.644 349.668C240.69 349.253 239.943 348.665 239.403 347.903C238.863 347.136 238.565 346.227 238.508 345.176H241.15C241.201 345.807 241.406 346.332 241.764 346.753C242.127 347.168 242.59 347.477 243.153 347.682C243.721 347.881 244.343 347.98 245.019 347.98C245.764 347.98 246.426 347.864 247.005 347.631C247.59 347.392 248.051 347.062 248.386 346.642C248.721 346.216 248.889 345.719 248.889 345.151C248.889 344.634 248.741 344.21 248.446 343.881C248.156 343.551 247.761 343.278 247.261 343.062C246.767 342.847 246.207 342.656 245.582 342.491L243.519 341.929C242.122 341.548 241.014 340.989 240.196 340.25C239.383 339.511 238.977 338.534 238.977 337.318C238.977 336.312 239.25 335.435 239.795 334.685C240.34 333.935 241.079 333.352 242.011 332.938C242.943 332.517 243.994 332.307 245.164 332.307C246.346 332.307 247.389 332.514 248.292 332.929C249.201 333.344 249.917 333.915 250.44 334.642C250.963 335.364 251.235 336.193 251.258 337.131H248.718ZM253.297 332.545H256.289L260.848 340.48H261.036L265.595 332.545H268.587L262.255 343.148V350H259.63V343.148L253.297 332.545ZM280.593 337.131C280.502 336.324 280.127 335.699 279.468 335.256C278.809 334.807 277.98 334.582 276.98 334.582C276.264 334.582 275.644 334.696 275.122 334.923C274.599 335.145 274.193 335.452 273.903 335.844C273.619 336.23 273.477 336.67 273.477 337.165C273.477 337.58 273.573 337.937 273.767 338.239C273.965 338.54 274.224 338.793 274.542 338.997C274.866 339.196 275.213 339.364 275.582 339.5C275.951 339.631 276.306 339.739 276.647 339.824L278.352 340.267C278.909 340.403 279.48 340.588 280.065 340.821C280.65 341.054 281.193 341.361 281.693 341.741C282.193 342.122 282.596 342.594 282.903 343.156C283.215 343.719 283.372 344.392 283.372 345.176C283.372 346.165 283.116 347.043 282.605 347.81C282.099 348.577 281.363 349.182 280.397 349.625C279.437 350.068 278.275 350.29 276.912 350.29C275.605 350.29 274.474 350.082 273.519 349.668C272.565 349.253 271.818 348.665 271.278 347.903C270.738 347.136 270.44 346.227 270.383 345.176H273.025C273.076 345.807 273.281 346.332 273.639 346.753C274.002 347.168 274.465 347.477 275.028 347.682C275.596 347.881 276.218 347.98 276.894 347.98C277.639 347.98 278.301 347.864 278.88 347.631C279.465 347.392 279.926 347.062 280.261 346.642C280.596 346.216 280.764 345.719 280.764 345.151C280.764 344.634 280.616 344.21 280.321 343.881C280.031 343.551 279.636 343.278 279.136 343.062C278.642 342.847 278.082 342.656 277.457 342.491L275.394 341.929C273.997 341.548 272.889 340.989 272.071 340.25C271.258 339.511 270.852 338.534 270.852 337.318C270.852 336.312 271.125 335.435 271.67 334.685C272.215 333.935 272.954 333.352 273.886 332.938C274.818 332.517 275.869 332.307 277.039 332.307C278.221 332.307 279.264 332.514 280.167 332.929C281.076 333.344 281.792 333.915 282.315 334.642C282.838 335.364 283.11 336.193 283.133 337.131H280.593ZM285.658 334.812V332.545H299.166V334.812H293.72V350H291.095V334.812H285.658ZM302.152 350V332.545H313.095V334.812H304.785V340.131H312.524V342.389H304.785V347.733H313.197V350H302.152ZM316.613 332.545H319.809L325.365 346.114H325.57L331.127 332.545H334.323V350H331.817V337.369H331.655L326.507 349.974H324.428L319.28 337.361H319.118V350H316.613V332.545ZM347.671 337.131C347.581 336.324 347.206 335.699 346.546 335.256C345.887 334.807 345.058 334.582 344.058 334.582C343.342 334.582 342.723 334.696 342.2 334.923C341.677 335.145 341.271 335.452 340.981 335.844C340.697 336.23 340.555 336.67 340.555 337.165C340.555 337.58 340.652 337.937 340.845 338.239C341.044 338.54 341.302 338.793 341.62 338.997C341.944 339.196 342.291 339.364 342.66 339.5C343.029 339.631 343.385 339.739 343.725 339.824L345.43 340.267C345.987 340.403 346.558 340.588 347.143 340.821C347.728 341.054 348.271 341.361 348.771 341.741C349.271 342.122 349.674 342.594 349.981 343.156C350.294 343.719 350.45 344.392 350.45 345.176C350.45 346.165 350.194 347.043 349.683 347.81C349.177 348.577 348.441 349.182 347.475 349.625C346.515 350.068 345.353 350.29 343.99 350.29C342.683 350.29 341.552 350.082 340.598 349.668C339.643 349.253 338.896 348.665 338.356 347.903C337.816 347.136 337.518 346.227 337.461 345.176H340.103C340.154 345.807 340.359 346.332 340.717 346.753C341.081 347.168 341.544 347.477 342.106 347.682C342.674 347.881 343.296 347.98 343.973 347.98C344.717 347.98 345.379 347.864 345.958 347.631C346.544 347.392 347.004 347.062 347.339 346.642C347.674 346.216 347.842 345.719 347.842 345.151C347.842 344.634 347.694 344.21 347.399 343.881C347.109 343.551 346.714 343.278 346.214 343.062C345.72 342.847 345.16 342.656 344.535 342.491L342.473 341.929C341.075 341.548 339.967 340.989 339.149 340.25C338.336 339.511 337.93 338.534 337.93 337.318C337.93 336.312 338.203 335.435 338.748 334.685C339.294 333.935 340.032 333.352 340.964 332.938C341.896 332.517 342.947 332.307 344.117 332.307C345.299 332.307 346.342 332.514 347.245 332.929C348.154 333.344 348.87 333.915 349.393 334.642C349.916 335.364 350.189 336.193 350.211 337.131H347.671ZM266.021 379.162C265.555 379.162 265.154 378.997 264.819 378.668C264.484 378.332 264.316 377.929 264.316 377.457C264.316 376.991 264.484 376.594 264.819 376.264C265.154 375.929 265.555 375.761 266.021 375.761C266.486 375.761 266.887 375.929 267.222 376.264C267.557 376.594 267.725 376.991 267.725 377.457C267.725 377.77 267.646 378.057 267.486 378.318C267.333 378.574 267.128 378.778 266.873 378.932C266.617 379.085 266.333 379.162 266.021 379.162ZM273.976 361.545V379H271.343V361.545H273.976ZM291.9 361.545V379H289.479L280.607 366.199H280.445V379H277.812V361.545H280.249L289.13 374.364H289.292V361.545H291.9ZM295.741 379V361.545H306.565V363.812H298.375V369.131H305.79V371.389H298.375V379H295.741ZM324.966 370.273C324.966 372.136 324.625 373.739 323.943 375.08C323.261 376.415 322.327 377.443 321.139 378.165C319.957 378.881 318.614 379.239 317.108 379.239C315.597 379.239 314.247 378.881 313.06 378.165C311.878 377.443 310.946 376.412 310.264 375.071C309.582 373.73 309.241 372.131 309.241 370.273C309.241 368.409 309.582 366.81 310.264 365.474C310.946 364.134 311.878 363.105 313.06 362.389C314.247 361.668 315.597 361.307 317.108 361.307C318.614 361.307 319.957 361.668 321.139 362.389C322.327 363.105 323.261 364.134 323.943 365.474C324.625 366.81 324.966 368.409 324.966 370.273ZM322.358 370.273C322.358 368.852 322.128 367.656 321.668 366.685C321.213 365.707 320.588 364.969 319.793 364.469C319.003 363.963 318.108 363.71 317.108 363.71C316.102 363.71 315.204 363.963 314.415 364.469C313.625 364.969 313 365.707 312.54 366.685C312.085 367.656 311.858 368.852 311.858 370.273C311.858 371.693 312.085 372.892 312.54 373.869C313 374.841 313.625 375.58 314.415 376.085C315.204 376.585 316.102 376.835 317.108 376.835C318.108 376.835 319.003 376.585 319.793 376.085C320.588 375.58 321.213 374.841 321.668 373.869C322.128 372.892 322.358 371.693 322.358 370.273Z" fill="white"/>
<path d="M24.2887 263V245.545H26.9222V253.131H35.6239V245.545H38.266V263H35.6239V255.389H26.9222V263H24.2887ZM42.1012 263V245.545H44.7347V253.131H53.4364V245.545H56.0785V263H53.4364V255.389H44.7347V263H42.1012ZM66.2653 263V245.545H72.6573C73.896 245.545 74.9215 245.75 75.734 246.159C76.5465 246.562 77.1545 247.111 77.5579 247.804C77.9613 248.491 78.163 249.267 78.163 250.131C78.163 250.858 78.0295 251.472 77.7624 251.972C77.4954 252.466 77.1374 252.864 76.6886 253.165C76.2454 253.46 75.7567 253.676 75.2227 253.812V253.983C75.8022 254.011 76.3675 254.199 76.9187 254.545C77.4755 254.886 77.9357 255.372 78.2994 256.003C78.663 256.634 78.8448 257.401 78.8448 258.304C78.8448 259.196 78.6346 259.997 78.2141 260.707C77.7994 261.412 77.1573 261.972 76.288 262.386C75.4187 262.795 74.3079 263 72.9556 263H66.2653ZM68.8988 260.741H72.6999C73.9613 260.741 74.8647 260.497 75.4102 260.009C75.9556 259.52 76.2283 258.909 76.2283 258.176C76.2283 257.625 76.0891 257.119 75.8107 256.659C75.5323 256.199 75.1346 255.832 74.6175 255.56C74.1062 255.287 73.4982 255.151 72.7937 255.151H68.8988V260.741ZM68.8988 253.097H72.4272C73.0181 253.097 73.5494 252.983 74.021 252.756C74.4982 252.528 74.8761 252.21 75.1545 251.801C75.4386 251.386 75.5806 250.898 75.5806 250.335C75.5806 249.614 75.3278 249.009 74.8221 248.52C74.3164 248.031 73.5408 247.787 72.4954 247.787H68.8988V253.097ZM96.4656 251.222H93.8065C93.7042 250.653 93.5138 250.153 93.2354 249.722C92.957 249.29 92.6161 248.923 92.2127 248.622C91.8093 248.321 91.3576 248.094 90.8576 247.94C90.3633 247.787 89.8377 247.71 89.2809 247.71C88.2752 247.71 87.3746 247.963 86.5792 248.469C85.7894 248.974 85.1644 249.716 84.7042 250.693C84.2496 251.67 84.0224 252.864 84.0224 254.273C84.0224 255.693 84.2496 256.892 84.7042 257.869C85.1644 258.847 85.7923 259.585 86.5877 260.085C87.3832 260.585 88.2781 260.835 89.2724 260.835C89.8235 260.835 90.3462 260.761 90.8406 260.614C91.3406 260.46 91.7923 260.236 92.1957 259.94C92.5991 259.645 92.94 259.284 93.2184 258.858C93.5025 258.426 93.6985 257.932 93.8065 257.375L96.4656 257.384C96.3235 258.241 96.0479 259.031 95.6389 259.753C95.2354 260.469 94.7156 261.088 94.0792 261.611C93.4485 262.128 92.7269 262.528 91.9144 262.812C91.1019 263.097 90.2156 263.239 89.2553 263.239C87.744 263.239 86.3974 262.881 85.2156 262.165C84.0337 261.443 83.1019 260.412 82.4201 259.071C81.744 257.73 81.4059 256.131 81.4059 254.273C81.4059 252.409 81.7468 250.81 82.4286 249.474C83.1104 248.134 84.0423 247.105 85.2241 246.389C86.4059 245.668 87.7496 245.307 89.2553 245.307C90.1815 245.307 91.0451 245.44 91.8462 245.707C92.6531 245.969 93.3775 246.355 94.0195 246.866C94.6616 247.372 95.1928 247.991 95.6133 248.724C96.0337 249.452 96.3178 250.284 96.4656 251.222ZM113.705 245.545V263H111.284L102.412 250.199H102.25V263H99.6168V245.545H102.054L110.935 258.364H111.097V245.545H113.705Z" fill="white"/>
</svg>
