<svg width="491" height="400" viewBox="0 0" fill="none" xmlns="http://www.w3.org/2000/svg">
<g clip-path="url(#clip0_115_7)">
<rect width="490" height="90" transform="translate(1)" fill="white"/>
<rect x="41" width="410" height="20" fill="#387214"/>
<rect x="41" y="70" width="410" height="20" fill="#387214"/>
<rect x="41" y="20" width="50" height="40" transform="rotate(90 41 20)" fill="#387214"/>
<rect x="491" y="20" width="50" height="40" transform="rotate(90 491 20)" fill="#387214"/>
</g>
<g clip-path="url(#clip1_115_7)">
<rect width="491" height="186" transform="translate(0 90)" fill="white"/>
<g clip-path="url(#clip2_115_7)">
<rect width="491" height="93" transform="translate(0 90)" fill="white"/>
<rect x="40" y="90" width="411" height="20" fill="#387214"/>
<rect x="40" y="163" width="411" height="20" fill="#387214"/>
<rect x="40" y="110" width="53" height="40" transform="rotate(90 40 110)" fill="#387214"/>
<rect x="491" y="110" width="53" height="40" transform="rotate(90 491 110)" fill="#387214"/>
</g>
<g clip-path="url(#clip3_115_7)">
<rect x="265.5" y="183" width="206" height="20" fill="#387214"/>
<rect x="265.5" y="257" width="206" height="20" fill="#387214"/>
<rect x="491.5" y="203" width="53" height="20" transform="rotate(90 491.5 203)" fill="#387214"/>
<rect x="245.5" y="203" width="20" height="54" fill="#387214"/>
<rect x="20" y="183" width="206" height="20" fill="#387214"/>
<rect x="20" y="256" width="206" height="20" fill="#387214"/>
<rect x="20" y="203" width="53" height="20" transform="rotate(90 20 203)" fill="#387214"/>
<rect x="226" y="203" width="20" height="54" fill="#387214"/>
</g>
</g>
<g clip-path="url(#clip4_115_7)">
<rect width="491" height="124" transform="translate(0 276)" fill="white"/>
<rect x="265.5" y="276" width="206" height="20" fill="#387214"/>
<rect x="265.5" y="381" width="206" height="20" fill="#387214"/>
<rect x="491.5" y="296" width="84" height="20" transform="rotate(90 491.5 296)" fill="#387214"/>
<rect x="245.5" y="296" width="20" height="85" fill="#387214"/>
<rect x="20" y="276" width="206" height="20" fill="#387214"/>
<rect x="20" y="380" width="206" height="20" fill="#387214"/>
<rect x="20" y="296" width="84" height="20" transform="rotate(90 20 296)" fill="#387214"/>
<rect x="226" y="296" width="20" height="85" fill="#387214"/>
</g>
<defs>
<clipPath id="clip0_115_7">
<rect width="490" height="90" fill="white" transform="translate(1)"/>
</clipPath>
<clipPath id="clip1_115_7">
<rect width="491" height="186" fill="white" transform="translate(0 90)"/>
</clipPath>
<clipPath id="clip2_115_7">
<rect width="491" height="93" fill="white" transform="translate(0 90)"/>
</clipPath>
<clipPath id="clip3_115_7">
<rect width="491" height="93" fill="white" transform="translate(0 183)"/>
</clipPath>
<clipPath id="clip4_115_7">
<rect width="491" height="124" fill="white" transform="translate(0 276)"/>
</clipPath>
</defs>
</svg>
